<svg width="16" height="16" viewBox="0 0 16 16" fill="none" xmlns="http://www.w3.org/2000/svg">
<path d="M14.5 7.75H13.2437C13.2085 6.99846 13.0108 6.26349 12.6644 5.59562L13.7544 4.96625C13.8088 4.93166 13.8477 4.87738 13.8631 4.81475C13.8784 4.75212 13.869 4.68599 13.8367 4.63016C13.8044 4.57433 13.7518 4.53314 13.6899 4.51517C13.628 4.4972 13.5615 4.50386 13.5044 4.53375L12.4137 5.16313C12.0063 4.5313 11.4687 3.9937 10.8369 3.58625L11.4663 2.49563C11.4961 2.43849 11.5028 2.37202 11.4848 2.31009C11.4669 2.24816 11.4257 2.19557 11.3698 2.1633C11.314 2.13103 11.2479 2.12158 11.1853 2.13692C11.1226 2.15226 11.0683 2.19121 11.0337 2.24563L10.4044 3.33562C9.73651 2.98919 9.00154 2.79154 8.25 2.75625V1.5C8.25 1.4337 8.22366 1.37011 8.17678 1.32322C8.12989 1.27634 8.0663 1.25 8 1.25C7.9337 1.25 7.87011 1.27634 7.82322 1.32322C7.77634 1.37011 7.75 1.4337 7.75 1.5V2.75625C6.99846 2.79154 6.26349 2.98919 5.59562 3.33562L4.96625 2.24563C4.93166 2.19121 4.87738 2.15226 4.81475 2.13692C4.75212 2.12158 4.68599 2.13103 4.63016 2.1633C4.57433 2.19557 4.53314 2.24816 4.51517 2.31009C4.4972 2.37202 4.50386 2.43849 4.53375 2.49563L5.16313 3.58625C4.5313 3.9937 3.9937 4.5313 3.58625 5.16313L2.49563 4.53375C2.46717 4.51566 2.43535 4.50352 2.40208 4.49804C2.36881 4.49257 2.33478 4.49389 2.30203 4.50191C2.26928 4.50993 2.23849 4.52449 2.21152 4.54472C2.18454 4.56495 2.16194 4.59043 2.14506 4.61962C2.12819 4.64881 2.1174 4.68111 2.11333 4.71458C2.10926 4.74805 2.11201 4.782 2.12141 4.81438C2.1308 4.84677 2.14665 4.87691 2.168 4.90301C2.18934 4.92911 2.21575 4.95062 2.24563 4.96625L3.33562 5.59562C2.98919 6.26349 2.79154 6.99846 2.75625 7.75H1.5C1.4337 7.75 1.37011 7.77634 1.32322 7.82322C1.27634 7.87011 1.25 7.9337 1.25 8C1.25 8.0663 1.27634 8.12989 1.32322 8.17678C1.37011 8.22366 1.4337 8.25 1.5 8.25H2.75625C2.79154 9.00154 2.98919 9.73651 3.33562 10.4044L2.24563 11.0337C2.19809 11.0613 2.16097 11.1038 2.13999 11.1546C2.11902 11.2054 2.11536 11.2617 2.12959 11.3147C2.14382 11.3678 2.17515 11.4147 2.21872 11.4482C2.26228 11.4817 2.31567 11.4999 2.37063 11.5C2.41457 11.5002 2.45776 11.4886 2.49563 11.4663L3.58625 10.8369C3.9937 11.4687 4.5313 12.0063 5.16313 12.4137L4.53375 13.5044C4.50066 13.5617 4.49168 13.6299 4.50879 13.6939C4.5259 13.7579 4.56769 13.8124 4.625 13.8456C4.68237 13.8787 4.75052 13.8877 4.8145 13.8706C4.87848 13.8535 4.93306 13.8117 4.96625 13.7544L5.59562 12.6644C6.26349 13.0108 6.99846 13.2085 7.75 13.2437V14.5C7.75 14.5663 7.77634 14.6299 7.82322 14.6768C7.87011 14.7237 7.9337 14.75 8 14.75C8.0663 14.75 8.12989 14.7237 8.17678 14.6768C8.22366 14.6299 8.25 14.5663 8.25 14.5V13.2437C9.00154 13.2085 9.73651 13.0108 10.4044 12.6644L11.0337 13.7544C11.0683 13.8088 11.1226 13.8477 11.1853 13.8631C11.2479 13.8784 11.314 13.869 11.3698 13.8367C11.4257 13.8044 11.4669 13.7518 11.4848 13.6899C11.5028 13.628 11.4961 13.5615 11.4663 13.5044L10.8369 12.4137C11.4687 12.0063 12.0063 11.4687 12.4137 10.8369L13.5044 11.4663C13.5422 11.4886 13.5854 11.5002 13.6294 11.5C13.6843 11.4999 13.7377 11.4817 13.7813 11.4482C13.8249 11.4147 13.8562 11.3678 13.8704 11.3147C13.8846 11.2617 13.881 11.2054 13.86 11.1546C13.839 11.1038 13.8019 11.0613 13.7544 11.0337L12.6644 10.4044C13.0108 9.73651 13.2085 9.00154 13.2437 8.25H14.5C14.5663 8.25 14.6299 8.22366 14.6768 8.17678C14.7237 8.12989 14.75 8.0663 14.75 8C14.75 7.9337 14.7237 7.87011 14.6768 7.82322C14.6299 7.77634 14.5663 7.75 14.5 7.75ZM8 3.25C9.21605 3.25144 10.3853 3.71866 11.2675 4.55563C12.1497 5.3926 12.6778 6.53571 12.7431 7.75H8.14437L5.84562 3.76875C6.51247 3.42748 7.2509 3.24967 8 3.25ZM3.25 8C3.25053 7.20884 3.44866 6.43034 3.82642 5.73519C4.20417 5.04003 4.74958 4.45025 5.41313 4.01937L7.71125 8L5.41313 11.9806C4.74958 11.5498 4.20417 10.96 3.82642 10.2648C3.44866 9.56966 3.25053 8.79116 3.25 8ZM8 12.75C7.2509 12.7503 6.51247 12.5725 5.84562 12.2312L8.14437 8.25H12.7431C12.6778 9.46429 12.1497 10.6074 11.2675 11.4444C10.3853 12.2813 9.21605 12.7486 8 12.75Z" fill="#18A0FB"/>
</svg>
